<mxfile host="app.diagrams.net" modified="2023-04-15T11:40:17.635Z" agent="Mozilla/5.0 (Macintosh; Intel Mac OS X 10_15_7) AppleWebKit/537.36 (KHTML, like Gecko) Chrome/112.0.0.0 Safari/537.36" etag="PAQPQgPm7xkPKup6orzT" version="21.1.8" type="device">
  <diagram id="3B03XYDXIa48sdE2aLpk" name="Page-1">
    <mxGraphModel dx="1004" dy="598" grid="1" gridSize="10" guides="1" tooltips="1" connect="1" arrows="1" fold="1" page="1" pageScale="1" pageWidth="1100" pageHeight="850" math="0" shadow="0">
      <root>
        <mxCell id="0" />
        <mxCell id="1" parent="0" />
        <mxCell id="KbIthd3pQMy6zMNx4K4I-1" value="&lt;font face=&quot;Times New Roman&quot; style=&quot;font-size: 20px;&quot;&gt;p = 5&lt;/font&gt;" style="swimlane;horizontal=0;whiteSpace=wrap;html=1;startSize=40;fillColor=#f5f5f5;fontColor=#333333;strokeColor=#666666;" parent="1" vertex="1">
          <mxGeometry x="200" y="40" width="920" height="280" as="geometry" />
        </mxCell>
        <mxCell id="KbIthd3pQMy6zMNx4K4I-2" value="&lt;font face=&quot;Times New Roman&quot; style=&quot;font-size: 20px;&quot;&gt;p = 10&lt;/font&gt;" style="swimlane;horizontal=0;whiteSpace=wrap;html=1;startSize=40;fillColor=#f5f5f5;fontColor=#333333;strokeColor=#666666;" parent="1" vertex="1">
          <mxGeometry x="200" y="320" width="920" height="280" as="geometry" />
        </mxCell>
        <mxCell id="KbIthd3pQMy6zMNx4K4I-3" value="&lt;b style=&quot;border-color: var(--border-color); font-family: Helvetica;&quot;&gt;&lt;font style=&quot;border-color: var(--border-color); font-size: 20px;&quot; face=&quot;Times New Roman&quot;&gt;sparse&lt;/font&gt;&lt;/b&gt;" style="swimlane;whiteSpace=wrap;html=1;fontFamily=Times New Roman;fontSize=17;startSize=40;fillColor=#f5f5f5;fontColor=#333333;strokeColor=#666666;" parent="1" vertex="1">
          <mxGeometry x="240" width="440" height="600" as="geometry" />
        </mxCell>
        <mxCell id="ARjCUjGzddFHNbugClma-74" value="" style="group" parent="KbIthd3pQMy6zMNx4K4I-3" vertex="1" connectable="0">
          <mxGeometry x="70" y="60" width="260" height="210" as="geometry" />
        </mxCell>
        <mxCell id="ARjCUjGzddFHNbugClma-1" value="" style="group;direction=east;" parent="ARjCUjGzddFHNbugClma-74" vertex="1" connectable="0">
          <mxGeometry x="40" y="50" width="220" height="160" as="geometry" />
        </mxCell>
        <mxCell id="ARjCUjGzddFHNbugClma-4" value="&lt;b style=&quot;font-size: 15px;&quot;&gt;&lt;font style=&quot;font-size: 15px;&quot; face=&quot;Times New Roman&quot;&gt;X&lt;span style=&quot;&quot;&gt;&lt;sub&gt;2&lt;/sub&gt;&lt;/span&gt;&lt;/font&gt;&lt;/b&gt;" style="ellipse;whiteSpace=wrap;html=1;aspect=fixed;direction=east;" parent="ARjCUjGzddFHNbugClma-1" vertex="1">
          <mxGeometry x="60" y="60" width="40" height="40" as="geometry" />
        </mxCell>
        <mxCell id="ARjCUjGzddFHNbugClma-5" value="&lt;b style=&quot;font-size: 15px;&quot;&gt;&lt;font style=&quot;font-size: 15px;&quot; face=&quot;Times New Roman&quot;&gt;X&lt;span style=&quot;&quot;&gt;&lt;sub&gt;4&lt;/sub&gt;&lt;/span&gt;&lt;/font&gt;&lt;/b&gt;" style="ellipse;whiteSpace=wrap;html=1;aspect=fixed;direction=east;" parent="ARjCUjGzddFHNbugClma-1" vertex="1">
          <mxGeometry x="180" y="60" width="40" height="40" as="geometry" />
        </mxCell>
        <mxCell id="ARjCUjGzddFHNbugClma-6" value="&lt;b style=&quot;font-size: 15px;&quot;&gt;&lt;font style=&quot;font-size: 15px;&quot; face=&quot;Times New Roman&quot;&gt;X&lt;span style=&quot;&quot;&gt;&lt;sub&gt;3&lt;/sub&gt;&lt;/span&gt;&lt;/font&gt;&lt;/b&gt;" style="ellipse;whiteSpace=wrap;html=1;aspect=fixed;direction=east;" parent="ARjCUjGzddFHNbugClma-1" vertex="1">
          <mxGeometry x="120" y="140" width="40" height="40" as="geometry" />
        </mxCell>
        <mxCell id="ARjCUjGzddFHNbugClma-8" value="" style="endArrow=classic;html=1;rounded=0;exitX=1;exitY=0;exitDx=0;exitDy=0;entryX=0;entryY=1;entryDx=0;entryDy=0;" parent="ARjCUjGzddFHNbugClma-1" source="ARjCUjGzddFHNbugClma-6" target="ARjCUjGzddFHNbugClma-5" edge="1">
          <mxGeometry width="50" height="50" relative="1" as="geometry">
            <mxPoint x="220" y="160" as="sourcePoint" />
            <mxPoint x="270" y="110" as="targetPoint" />
          </mxGeometry>
        </mxCell>
        <mxCell id="ARjCUjGzddFHNbugClma-9" value="" style="endArrow=classic;html=1;rounded=0;exitX=1;exitY=1;exitDx=0;exitDy=0;" parent="ARjCUjGzddFHNbugClma-1" source="ARjCUjGzddFHNbugClma-4" target="ARjCUjGzddFHNbugClma-6" edge="1">
          <mxGeometry width="50" height="50" relative="1" as="geometry">
            <mxPoint x="140" y="120" as="sourcePoint" />
            <mxPoint x="270" y="110" as="targetPoint" />
          </mxGeometry>
        </mxCell>
        <mxCell id="ARjCUjGzddFHNbugClma-10" value="" style="endArrow=classic;html=1;rounded=0;exitX=0;exitY=0.5;exitDx=0;exitDy=0;entryX=1;entryY=0.5;entryDx=0;entryDy=0;" parent="ARjCUjGzddFHNbugClma-1" source="ARjCUjGzddFHNbugClma-5" target="ARjCUjGzddFHNbugClma-4" edge="1">
          <mxGeometry width="50" height="50" relative="1" as="geometry">
            <mxPoint x="230" y="160" as="sourcePoint" />
            <mxPoint x="280" y="110" as="targetPoint" />
          </mxGeometry>
        </mxCell>
        <mxCell id="ARjCUjGzddFHNbugClma-13" value="&lt;font style=&quot;font-size: 15px;&quot; face=&quot;Times New Roman&quot; color=&quot;#000000&quot;&gt;&lt;b&gt;L&lt;sub&gt;1&lt;/sub&gt;&lt;/b&gt;&lt;/font&gt;" style="ellipse;whiteSpace=wrap;html=1;aspect=fixed;fillColor=#f5f5f5;fontColor=#333333;strokeColor=#000000;direction=east;" parent="ARjCUjGzddFHNbugClma-74" vertex="1">
          <mxGeometry y="50" width="40" height="40" as="geometry" />
        </mxCell>
        <mxCell id="ARjCUjGzddFHNbugClma-14" value="" style="endArrow=classic;html=1;rounded=0;exitX=1;exitY=0;exitDx=0;exitDy=0;strokeColor=#000000;dashed=1;entryX=0;entryY=0.5;entryDx=0;entryDy=0;" parent="ARjCUjGzddFHNbugClma-74" source="ARjCUjGzddFHNbugClma-13" target="ARjCUjGzddFHNbugClma-2" edge="1">
          <mxGeometry width="50" height="50" relative="1" as="geometry">
            <mxPoint x="430" y="340" as="sourcePoint" />
            <mxPoint x="80" y="100" as="targetPoint" />
          </mxGeometry>
        </mxCell>
        <mxCell id="ARjCUjGzddFHNbugClma-15" value="" style="endArrow=classic;html=1;rounded=0;exitX=1;exitY=1;exitDx=0;exitDy=0;strokeColor=#000000;dashed=1;entryX=0;entryY=0.5;entryDx=0;entryDy=0;" parent="ARjCUjGzddFHNbugClma-74" source="ARjCUjGzddFHNbugClma-13" target="ARjCUjGzddFHNbugClma-4" edge="1">
          <mxGeometry width="50" height="50" relative="1" as="geometry">
            <mxPoint x="90" y="190" as="sourcePoint" />
            <mxPoint x="180" y="200" as="targetPoint" />
          </mxGeometry>
        </mxCell>
        <mxCell id="ARjCUjGzddFHNbugClma-3" value="&lt;b style=&quot;font-size: 15px;&quot;&gt;&lt;font style=&quot;font-size: 15px;&quot; face=&quot;Times New Roman&quot;&gt;X&lt;span style=&quot;&quot;&gt;&lt;sub&gt;5&lt;/sub&gt;&lt;/span&gt;&lt;/font&gt;&lt;/b&gt;" style="ellipse;whiteSpace=wrap;html=1;aspect=fixed;direction=east;" parent="ARjCUjGzddFHNbugClma-74" vertex="1">
          <mxGeometry x="220" width="40" height="40" as="geometry" />
        </mxCell>
        <mxCell id="ARjCUjGzddFHNbugClma-11" value="" style="endArrow=classic;html=1;rounded=0;exitX=0.5;exitY=1;exitDx=0;exitDy=0;entryX=0.5;entryY=0;entryDx=0;entryDy=0;" parent="ARjCUjGzddFHNbugClma-74" source="ARjCUjGzddFHNbugClma-3" target="ARjCUjGzddFHNbugClma-5" edge="1">
          <mxGeometry width="50" height="50" relative="1" as="geometry">
            <mxPoint x="270" y="210" as="sourcePoint" />
            <mxPoint x="320" y="160" as="targetPoint" />
          </mxGeometry>
        </mxCell>
        <mxCell id="ARjCUjGzddFHNbugClma-2" value="&lt;b style=&quot;font-size: 15px;&quot;&gt;&lt;font style=&quot;font-size: 15px;&quot; face=&quot;Times New Roman&quot;&gt;X&lt;sub&gt;1&lt;/sub&gt;&lt;/font&gt;&lt;/b&gt;" style="ellipse;whiteSpace=wrap;html=1;aspect=fixed;direction=east;" parent="ARjCUjGzddFHNbugClma-74" vertex="1">
          <mxGeometry x="100" width="40" height="40" as="geometry" />
        </mxCell>
        <mxCell id="VlsjXs8myiMY3NLYp2yQ-6" value="" style="endArrow=classic;html=1;rounded=0;exitX=0.5;exitY=1;exitDx=0;exitDy=0;entryX=0.5;entryY=0;entryDx=0;entryDy=0;strokeColor=#000000;dashed=1;dashPattern=12 12;" parent="ARjCUjGzddFHNbugClma-74" edge="1">
          <mxGeometry width="50" height="50" relative="1" as="geometry">
            <mxPoint x="118" y="40" as="sourcePoint" />
            <mxPoint x="118" y="110" as="targetPoint" />
          </mxGeometry>
        </mxCell>
        <mxCell id="AcIeWgYr6pf9MUw3DJko-64" value="" style="group" parent="KbIthd3pQMy6zMNx4K4I-3" vertex="1" connectable="0">
          <mxGeometry x="20" y="360" width="410" height="190" as="geometry" />
        </mxCell>
        <mxCell id="AcIeWgYr6pf9MUw3DJko-65" value="&lt;font face=&quot;Times New Roman&quot; color=&quot;#000000&quot; style=&quot;font-size: 15px;&quot;&gt;&lt;b&gt;L&lt;sub&gt;1&lt;/sub&gt;&lt;/b&gt;&lt;/font&gt;" style="ellipse;whiteSpace=wrap;html=1;aspect=fixed;fillColor=#f5f5f5;fontColor=#333333;strokeColor=#000000;" parent="AcIeWgYr6pf9MUw3DJko-64" vertex="1">
          <mxGeometry x="371.8604651162791" y="76" width="38" height="38" as="geometry" />
        </mxCell>
        <mxCell id="AcIeWgYr6pf9MUw3DJko-66" value="" style="endArrow=classic;html=1;rounded=0;exitX=0;exitY=0;exitDx=0;exitDy=0;strokeColor=#000000;dashed=1;entryX=1;entryY=1;entryDx=0;entryDy=0;" parent="AcIeWgYr6pf9MUw3DJko-64" source="AcIeWgYr6pf9MUw3DJko-65" target="AcIeWgYr6pf9MUw3DJko-77" edge="1">
          <mxGeometry width="50" height="50" relative="1" as="geometry">
            <mxPoint x="686.5116279069767" y="204.25" as="sourcePoint" />
            <mxPoint x="276.51162790697674" y="19" as="targetPoint" />
          </mxGeometry>
        </mxCell>
        <mxCell id="AcIeWgYr6pf9MUw3DJko-67" value="" style="endArrow=classic;html=1;rounded=0;exitX=0;exitY=1;exitDx=0;exitDy=0;strokeColor=#000000;dashed=1;entryX=1;entryY=0;entryDx=0;entryDy=0;" parent="AcIeWgYr6pf9MUw3DJko-64" source="AcIeWgYr6pf9MUw3DJko-65" target="AcIeWgYr6pf9MUw3DJko-78" edge="1">
          <mxGeometry width="50" height="50" relative="1" as="geometry">
            <mxPoint x="362.3255813953488" y="61.75" as="sourcePoint" />
            <mxPoint x="448.13953488372096" y="71.25" as="targetPoint" />
          </mxGeometry>
        </mxCell>
        <mxCell id="AcIeWgYr6pf9MUw3DJko-68" value="&lt;font face=&quot;Times New Roman&quot; style=&quot;font-size: 15px;&quot;&gt;&lt;b&gt;X&lt;sub&gt;1&lt;/sub&gt;&lt;/b&gt;&lt;/font&gt;" style="ellipse;whiteSpace=wrap;html=1;aspect=fixed;" parent="AcIeWgYr6pf9MUw3DJko-64" vertex="1">
          <mxGeometry width="38" height="38" as="geometry" />
        </mxCell>
        <mxCell id="AcIeWgYr6pf9MUw3DJko-69" value="&lt;font face=&quot;Times New Roman&quot; style=&quot;font-size: 15px;&quot;&gt;&lt;b&gt;X&lt;sub&gt;2&lt;/sub&gt;&lt;/b&gt;&lt;/font&gt;" style="ellipse;whiteSpace=wrap;html=1;aspect=fixed;" parent="AcIeWgYr6pf9MUw3DJko-64" vertex="1">
          <mxGeometry x="76.27906976744187" width="38" height="38" as="geometry" />
        </mxCell>
        <mxCell id="AcIeWgYr6pf9MUw3DJko-71" value="&lt;font face=&quot;Times New Roman&quot; style=&quot;font-size: 15px;&quot;&gt;&lt;b&gt;X&lt;sub&gt;3&lt;/sub&gt;&lt;/b&gt;&lt;/font&gt;" style="ellipse;whiteSpace=wrap;html=1;aspect=fixed;" parent="AcIeWgYr6pf9MUw3DJko-64" vertex="1">
          <mxGeometry x="38.139534883720934" y="76" width="38" height="38" as="geometry" />
        </mxCell>
        <mxCell id="AcIeWgYr6pf9MUw3DJko-72" value="&lt;font face=&quot;Times New Roman&quot; style=&quot;font-size: 15px;&quot;&gt;&lt;b&gt;X&lt;sub&gt;4&lt;/sub&gt;&lt;/b&gt;&lt;/font&gt;" style="ellipse;whiteSpace=wrap;html=1;aspect=fixed;" parent="AcIeWgYr6pf9MUw3DJko-64" vertex="1">
          <mxGeometry x="114.4186046511628" y="152" width="38" height="38" as="geometry" />
        </mxCell>
        <mxCell id="AcIeWgYr6pf9MUw3DJko-73" value="&lt;font face=&quot;Times New Roman&quot; style=&quot;font-size: 15px;&quot;&gt;&lt;b&gt;X&lt;sub&gt;5&lt;/sub&gt;&lt;/b&gt;&lt;/font&gt;" style="ellipse;whiteSpace=wrap;html=1;aspect=fixed;" parent="AcIeWgYr6pf9MUw3DJko-64" vertex="1">
          <mxGeometry x="152.55813953488374" y="76" width="38" height="38" as="geometry" />
        </mxCell>
        <mxCell id="AcIeWgYr6pf9MUw3DJko-74" value="&lt;font face=&quot;Times New Roman&quot; style=&quot;font-size: 15px;&quot;&gt;&lt;b&gt;X&lt;sub&gt;6&lt;/sub&gt;&lt;/b&gt;&lt;/font&gt;" style="ellipse;whiteSpace=wrap;html=1;aspect=fixed;" parent="AcIeWgYr6pf9MUw3DJko-64" vertex="1">
          <mxGeometry x="200.2325581395349" y="152" width="38" height="38" as="geometry" />
        </mxCell>
        <mxCell id="AcIeWgYr6pf9MUw3DJko-75" value="&lt;font face=&quot;Times New Roman&quot; style=&quot;font-size: 15px;&quot;&gt;&lt;b&gt;X&lt;sub&gt;7&lt;/sub&gt;&lt;/b&gt;&lt;/font&gt;" style="ellipse;whiteSpace=wrap;html=1;aspect=fixed;" parent="AcIeWgYr6pf9MUw3DJko-64" vertex="1">
          <mxGeometry x="257.4418604651163" y="76" width="38" height="38" as="geometry" />
        </mxCell>
        <mxCell id="AcIeWgYr6pf9MUw3DJko-76" value="&lt;font face=&quot;Times New Roman&quot; style=&quot;font-size: 15px;&quot;&gt;&lt;b&gt;X&lt;sub&gt;9&lt;/sub&gt;&lt;/b&gt;&lt;/font&gt;" style="ellipse;whiteSpace=wrap;html=1;aspect=fixed;" parent="AcIeWgYr6pf9MUw3DJko-64" vertex="1">
          <mxGeometry x="228.8372093023256" width="38" height="38" as="geometry" />
        </mxCell>
        <mxCell id="AcIeWgYr6pf9MUw3DJko-77" value="&lt;font face=&quot;Times New Roman&quot; style=&quot;font-size: 15px;&quot;&gt;&lt;b&gt;X&lt;sub&gt;10&lt;/sub&gt;&lt;/b&gt;&lt;/font&gt;" style="ellipse;whiteSpace=wrap;html=1;aspect=fixed;" parent="AcIeWgYr6pf9MUw3DJko-64" vertex="1">
          <mxGeometry x="314.6511627906977" width="38" height="38" as="geometry" />
        </mxCell>
        <mxCell id="AcIeWgYr6pf9MUw3DJko-78" value="&lt;font face=&quot;Times New Roman&quot; style=&quot;font-size: 15px;&quot;&gt;&lt;b&gt;X&lt;sub&gt;8&lt;/sub&gt;&lt;/b&gt;&lt;/font&gt;" style="ellipse;whiteSpace=wrap;html=1;aspect=fixed;" parent="AcIeWgYr6pf9MUw3DJko-64" vertex="1">
          <mxGeometry x="305.1162790697675" y="152" width="38" height="38" as="geometry" />
        </mxCell>
        <mxCell id="AcIeWgYr6pf9MUw3DJko-79" style="edgeStyle=orthogonalEdgeStyle;rounded=0;orthogonalLoop=1;jettySize=auto;html=1;exitX=1;exitY=0.5;exitDx=0;exitDy=0;entryX=0;entryY=0.5;entryDx=0;entryDy=0;startArrow=classic;startFill=1;endArrow=none;endFill=0;" parent="AcIeWgYr6pf9MUw3DJko-64" source="AcIeWgYr6pf9MUw3DJko-72" target="AcIeWgYr6pf9MUw3DJko-74" edge="1">
          <mxGeometry relative="1" as="geometry" />
        </mxCell>
        <mxCell id="AcIeWgYr6pf9MUw3DJko-80" value="" style="endArrow=classic;html=1;rounded=0;exitX=0.5;exitY=1;exitDx=0;exitDy=0;entryX=0;entryY=0;entryDx=0;entryDy=0;" parent="AcIeWgYr6pf9MUw3DJko-64" source="AcIeWgYr6pf9MUw3DJko-68" target="AcIeWgYr6pf9MUw3DJko-71" edge="1">
          <mxGeometry width="50" height="50" relative="1" as="geometry">
            <mxPoint x="247.90697674418607" y="28.5" as="sourcePoint" />
            <mxPoint x="295.5813953488372" y="-19" as="targetPoint" />
          </mxGeometry>
        </mxCell>
        <mxCell id="AcIeWgYr6pf9MUw3DJko-81" value="" style="endArrow=none;html=1;rounded=0;exitX=0.5;exitY=1;exitDx=0;exitDy=0;entryX=1;entryY=0;entryDx=0;entryDy=0;startArrow=classic;startFill=1;endFill=0;" parent="AcIeWgYr6pf9MUw3DJko-64" source="AcIeWgYr6pf9MUw3DJko-69" target="AcIeWgYr6pf9MUw3DJko-71" edge="1">
          <mxGeometry width="50" height="50" relative="1" as="geometry">
            <mxPoint x="247.90697674418607" y="28.5" as="sourcePoint" />
            <mxPoint x="295.5813953488372" y="-19" as="targetPoint" />
          </mxGeometry>
        </mxCell>
        <mxCell id="AcIeWgYr6pf9MUw3DJko-82" value="" style="endArrow=classic;html=1;rounded=0;exitX=0;exitY=1;exitDx=0;exitDy=0;entryX=1;entryY=0;entryDx=0;entryDy=0;" parent="AcIeWgYr6pf9MUw3DJko-64" source="AcIeWgYr6pf9MUw3DJko-75" target="AcIeWgYr6pf9MUw3DJko-74" edge="1">
          <mxGeometry width="50" height="50" relative="1" as="geometry">
            <mxPoint x="209.7674418604651" y="28.5" as="sourcePoint" />
            <mxPoint x="257.4418604651163" y="-19" as="targetPoint" />
          </mxGeometry>
        </mxCell>
        <mxCell id="AcIeWgYr6pf9MUw3DJko-83" value="" style="endArrow=classic;html=1;rounded=0;exitX=1;exitY=1;exitDx=0;exitDy=0;entryX=0.025;entryY=0.325;entryDx=0;entryDy=0;entryPerimeter=0;" parent="AcIeWgYr6pf9MUw3DJko-64" source="AcIeWgYr6pf9MUw3DJko-71" target="AcIeWgYr6pf9MUw3DJko-72" edge="1">
          <mxGeometry width="50" height="50" relative="1" as="geometry">
            <mxPoint x="209.7674418604651" y="28.5" as="sourcePoint" />
            <mxPoint x="257.4418604651163" y="-19" as="targetPoint" />
          </mxGeometry>
        </mxCell>
        <mxCell id="AcIeWgYr6pf9MUw3DJko-84" value="" style="endArrow=classic;html=1;rounded=0;fontFamily=Times New Roman;entryX=1;entryY=0.5;entryDx=0;entryDy=0;exitX=0;exitY=0.5;exitDx=0;exitDy=0;" parent="AcIeWgYr6pf9MUw3DJko-64" source="AcIeWgYr6pf9MUw3DJko-77" target="AcIeWgYr6pf9MUw3DJko-76" edge="1">
          <mxGeometry width="50" height="50" relative="1" as="geometry">
            <mxPoint x="395.69767441860466" y="-19" as="sourcePoint" />
            <mxPoint x="443.37209302325584" y="-66.5" as="targetPoint" />
          </mxGeometry>
        </mxCell>
        <mxCell id="AcIeWgYr6pf9MUw3DJko-85" value="" style="endArrow=classic;html=1;rounded=0;exitX=1;exitY=1;exitDx=0;exitDy=0;entryX=0.5;entryY=0;entryDx=0;entryDy=0;" parent="AcIeWgYr6pf9MUw3DJko-64" source="AcIeWgYr6pf9MUw3DJko-73" target="AcIeWgYr6pf9MUw3DJko-74" edge="1">
          <mxGeometry width="50" height="50" relative="1" as="geometry">
            <mxPoint x="204.046511627907" y="114" as="sourcePoint" />
            <mxPoint x="266.9767441860465" y="167.2" as="targetPoint" />
          </mxGeometry>
        </mxCell>
        <mxCell id="AcIeWgYr6pf9MUw3DJko-86" value="" style="endArrow=classic;html=1;rounded=0;exitX=0.5;exitY=0;exitDx=0;exitDy=0;entryX=0;entryY=1;entryDx=0;entryDy=0;" parent="AcIeWgYr6pf9MUw3DJko-64" source="AcIeWgYr6pf9MUw3DJko-72" target="AcIeWgYr6pf9MUw3DJko-73" edge="1">
          <mxGeometry width="50" height="50" relative="1" as="geometry">
            <mxPoint x="89.62790697674419" y="136.79999999999998" as="sourcePoint" />
            <mxPoint x="152.55813953488374" y="190" as="targetPoint" />
          </mxGeometry>
        </mxCell>
        <mxCell id="AcIeWgYr6pf9MUw3DJko-87" value="" style="endArrow=classic;html=1;rounded=0;entryX=0;entryY=0;entryDx=0;entryDy=0;exitX=1;exitY=1;exitDx=0;exitDy=0;" parent="AcIeWgYr6pf9MUw3DJko-64" source="AcIeWgYr6pf9MUw3DJko-75" target="AcIeWgYr6pf9MUw3DJko-78" edge="1">
          <mxGeometry width="50" height="50" relative="1" as="geometry">
            <mxPoint x="295.5813953488372" y="114" as="sourcePoint" />
            <mxPoint x="247.90697674418607" y="161.5" as="targetPoint" />
          </mxGeometry>
        </mxCell>
        <mxCell id="AcIeWgYr6pf9MUw3DJko-88" value="" style="endArrow=classic;html=1;rounded=0;exitX=0.5;exitY=1;exitDx=0;exitDy=0;entryX=0;entryY=0;entryDx=0;entryDy=0;" parent="AcIeWgYr6pf9MUw3DJko-64" source="AcIeWgYr6pf9MUw3DJko-76" target="AcIeWgYr6pf9MUw3DJko-75" edge="1">
          <mxGeometry width="50" height="50" relative="1" as="geometry">
            <mxPoint x="282.2325581395349" y="127.3" as="sourcePoint" />
            <mxPoint x="257.4418604651163" y="171" as="targetPoint" />
          </mxGeometry>
        </mxCell>
        <mxCell id="AcIeWgYr6pf9MUw3DJko-90" value="&lt;font face=&quot;Times New Roman&quot; color=&quot;#000000&quot; style=&quot;font-size: 15px;&quot;&gt;&lt;b&gt;L&lt;sub&gt;2&lt;/sub&gt;&lt;/b&gt;&lt;/font&gt;" style="ellipse;whiteSpace=wrap;html=1;aspect=fixed;fillColor=#f5f5f5;fontColor=#333333;strokeColor=#000000;" parent="AcIeWgYr6pf9MUw3DJko-64" vertex="1">
          <mxGeometry x="162.09302325581396" width="38" height="38" as="geometry" />
        </mxCell>
        <mxCell id="AcIeWgYr6pf9MUw3DJko-91" value="" style="endArrow=classic;html=1;rounded=0;exitX=0.5;exitY=1;exitDx=0;exitDy=0;strokeColor=#000000;dashed=1;entryX=0.5;entryY=0;entryDx=0;entryDy=0;" parent="AcIeWgYr6pf9MUw3DJko-64" source="AcIeWgYr6pf9MUw3DJko-90" target="AcIeWgYr6pf9MUw3DJko-73" edge="1">
          <mxGeometry width="50" height="50" relative="1" as="geometry">
            <mxPoint x="387.1162790697675" y="117.8" as="sourcePoint" />
            <mxPoint x="190.69767441860466" y="76" as="targetPoint" />
          </mxGeometry>
        </mxCell>
        <mxCell id="AcIeWgYr6pf9MUw3DJko-92" value="" style="endArrow=classic;html=1;rounded=0;exitX=0;exitY=0.5;exitDx=0;exitDy=0;strokeColor=#000000;dashed=1;entryX=1;entryY=0.5;entryDx=0;entryDy=0;" parent="AcIeWgYr6pf9MUw3DJko-64" source="AcIeWgYr6pf9MUw3DJko-90" target="AcIeWgYr6pf9MUw3DJko-69" edge="1">
          <mxGeometry width="50" height="50" relative="1" as="geometry">
            <mxPoint x="396.6511627906977" y="127.3" as="sourcePoint" />
            <mxPoint x="356.60465116279073" y="176.7" as="targetPoint" />
          </mxGeometry>
        </mxCell>
        <mxCell id="KbIthd3pQMy6zMNx4K4I-4" value="&lt;b style=&quot;font-family: Helvetica;&quot;&gt;&lt;font style=&quot;font-size: 20px;&quot; face=&quot;Times New Roman&quot;&gt;dense&lt;/font&gt;&lt;/b&gt;" style="swimlane;whiteSpace=wrap;html=1;fontFamily=Times New Roman;fontSize=17;startSize=40;fillColor=#f5f5f5;fontColor=#333333;strokeColor=#666666;" parent="KbIthd3pQMy6zMNx4K4I-3" vertex="1">
          <mxGeometry x="440" width="440" height="600" as="geometry" />
        </mxCell>
        <mxCell id="ARjCUjGzddFHNbugClma-72" value="" style="group" parent="KbIthd3pQMy6zMNx4K4I-4" vertex="1" connectable="0">
          <mxGeometry x="75" y="60" width="260" height="230" as="geometry" />
        </mxCell>
        <mxCell id="ARjCUjGzddFHNbugClma-21" value="" style="group;direction=east;" parent="ARjCUjGzddFHNbugClma-72" vertex="1" connectable="0">
          <mxGeometry x="40" y="50" width="220" height="180" as="geometry" />
        </mxCell>
        <mxCell id="ARjCUjGzddFHNbugClma-22" value="&lt;font face=&quot;Times New Roman&quot; style=&quot;font-size: 15px;&quot;&gt;&lt;b&gt;X&lt;sub&gt;2&lt;/sub&gt;&lt;/b&gt;&lt;/font&gt;" style="ellipse;whiteSpace=wrap;html=1;aspect=fixed;direction=east;" parent="ARjCUjGzddFHNbugClma-21" vertex="1">
          <mxGeometry x="60" y="60" width="40" height="40" as="geometry" />
        </mxCell>
        <mxCell id="ARjCUjGzddFHNbugClma-23" value="&lt;font face=&quot;Times New Roman&quot; style=&quot;font-size: 15px;&quot;&gt;&lt;b&gt;X&lt;sub&gt;4&lt;/sub&gt;&lt;/b&gt;&lt;/font&gt;" style="ellipse;whiteSpace=wrap;html=1;aspect=fixed;direction=east;" parent="ARjCUjGzddFHNbugClma-21" vertex="1">
          <mxGeometry x="180" y="60" width="40" height="40" as="geometry" />
        </mxCell>
        <mxCell id="ARjCUjGzddFHNbugClma-27" value="" style="endArrow=classic;html=1;rounded=0;exitX=0;exitY=0.5;exitDx=0;exitDy=0;entryX=1;entryY=0.5;entryDx=0;entryDy=0;" parent="ARjCUjGzddFHNbugClma-21" source="ARjCUjGzddFHNbugClma-23" target="ARjCUjGzddFHNbugClma-22" edge="1">
          <mxGeometry width="50" height="50" relative="1" as="geometry">
            <mxPoint x="230" y="160" as="sourcePoint" />
            <mxPoint x="280" y="110" as="targetPoint" />
          </mxGeometry>
        </mxCell>
        <mxCell id="ARjCUjGzddFHNbugClma-24" value="&lt;b style=&quot;font-size: 15px;&quot;&gt;&lt;font face=&quot;Times New Roman&quot;&gt;X&lt;span style=&quot;&quot;&gt;&lt;sub&gt;3&lt;/sub&gt;&lt;/span&gt;&lt;/font&gt;&lt;/b&gt;" style="ellipse;whiteSpace=wrap;html=1;aspect=fixed;direction=east;" parent="ARjCUjGzddFHNbugClma-21" vertex="1">
          <mxGeometry x="120" y="140" width="40" height="40" as="geometry" />
        </mxCell>
        <mxCell id="ARjCUjGzddFHNbugClma-26" value="" style="endArrow=classic;html=1;rounded=0;exitX=1;exitY=1;exitDx=0;exitDy=0;entryX=0;entryY=0;entryDx=0;entryDy=0;" parent="ARjCUjGzddFHNbugClma-21" source="ARjCUjGzddFHNbugClma-22" target="ARjCUjGzddFHNbugClma-24" edge="1">
          <mxGeometry width="50" height="50" relative="1" as="geometry">
            <mxPoint x="140" y="120" as="sourcePoint" />
            <mxPoint x="270" y="110" as="targetPoint" />
          </mxGeometry>
        </mxCell>
        <mxCell id="ARjCUjGzddFHNbugClma-25" value="" style="endArrow=classic;html=1;rounded=0;exitX=1;exitY=0;exitDx=0;exitDy=0;entryX=0;entryY=1;entryDx=0;entryDy=0;" parent="ARjCUjGzddFHNbugClma-21" source="ARjCUjGzddFHNbugClma-24" target="ARjCUjGzddFHNbugClma-23" edge="1">
          <mxGeometry width="50" height="50" relative="1" as="geometry">
            <mxPoint x="220" y="160" as="sourcePoint" />
            <mxPoint x="270" y="110" as="targetPoint" />
          </mxGeometry>
        </mxCell>
        <mxCell id="ARjCUjGzddFHNbugClma-28" value="&lt;font style=&quot;font-size: 15px;&quot; face=&quot;Times New Roman&quot; color=&quot;#000000&quot;&gt;&lt;b&gt;L&lt;sub&gt;1&lt;/sub&gt;&lt;/b&gt;&lt;/font&gt;" style="ellipse;whiteSpace=wrap;html=1;aspect=fixed;fillColor=#f5f5f5;fontColor=#333333;strokeColor=#000000;direction=east;" parent="ARjCUjGzddFHNbugClma-72" vertex="1">
          <mxGeometry y="50" width="40" height="40" as="geometry" />
        </mxCell>
        <mxCell id="ARjCUjGzddFHNbugClma-29" value="" style="endArrow=classic;html=1;rounded=0;exitX=1;exitY=0;exitDx=0;exitDy=0;strokeColor=#000000;dashed=1;entryX=0;entryY=0.5;entryDx=0;entryDy=0;" parent="ARjCUjGzddFHNbugClma-72" source="ARjCUjGzddFHNbugClma-28" target="ARjCUjGzddFHNbugClma-33" edge="1">
          <mxGeometry width="50" height="50" relative="1" as="geometry">
            <mxPoint x="430" y="340" as="sourcePoint" />
            <mxPoint x="80" y="100" as="targetPoint" />
          </mxGeometry>
        </mxCell>
        <mxCell id="ARjCUjGzddFHNbugClma-30" value="" style="endArrow=classic;html=1;rounded=0;exitX=1;exitY=1;exitDx=0;exitDy=0;strokeColor=#000000;dashed=1;entryX=0;entryY=0.5;entryDx=0;entryDy=0;" parent="ARjCUjGzddFHNbugClma-72" source="ARjCUjGzddFHNbugClma-28" target="ARjCUjGzddFHNbugClma-22" edge="1">
          <mxGeometry width="50" height="50" relative="1" as="geometry">
            <mxPoint x="90" y="190" as="sourcePoint" />
            <mxPoint x="180" y="200" as="targetPoint" />
          </mxGeometry>
        </mxCell>
        <mxCell id="ARjCUjGzddFHNbugClma-31" value="&lt;font face=&quot;Times New Roman&quot; style=&quot;font-size: 15px;&quot;&gt;&lt;b&gt;X&lt;sub&gt;5&lt;/sub&gt;&lt;/b&gt;&lt;/font&gt;" style="ellipse;whiteSpace=wrap;html=1;aspect=fixed;direction=east;" parent="ARjCUjGzddFHNbugClma-72" vertex="1">
          <mxGeometry x="220" width="40" height="40" as="geometry" />
        </mxCell>
        <mxCell id="ARjCUjGzddFHNbugClma-32" value="" style="endArrow=classic;html=1;rounded=0;exitX=0.5;exitY=1;exitDx=0;exitDy=0;entryX=0.5;entryY=0;entryDx=0;entryDy=0;" parent="ARjCUjGzddFHNbugClma-72" source="ARjCUjGzddFHNbugClma-31" target="ARjCUjGzddFHNbugClma-23" edge="1">
          <mxGeometry width="50" height="50" relative="1" as="geometry">
            <mxPoint x="270" y="210" as="sourcePoint" />
            <mxPoint x="320" y="160" as="targetPoint" />
          </mxGeometry>
        </mxCell>
        <mxCell id="ARjCUjGzddFHNbugClma-35" style="edgeStyle=orthogonalEdgeStyle;rounded=0;orthogonalLoop=1;jettySize=auto;html=1;exitX=1;exitY=0.5;exitDx=0;exitDy=0;entryX=0;entryY=0.5;entryDx=0;entryDy=0;fontFamily=Times New Roman;" parent="ARjCUjGzddFHNbugClma-72" source="ARjCUjGzddFHNbugClma-33" target="ARjCUjGzddFHNbugClma-31" edge="1">
          <mxGeometry relative="1" as="geometry" />
        </mxCell>
        <mxCell id="ARjCUjGzddFHNbugClma-33" value="&lt;font face=&quot;Times New Roman&quot; style=&quot;font-size: 15px;&quot;&gt;&lt;b&gt;X&lt;sub&gt;1&lt;/sub&gt;&lt;/b&gt;&lt;/font&gt;" style="ellipse;whiteSpace=wrap;html=1;aspect=fixed;direction=east;" parent="ARjCUjGzddFHNbugClma-72" vertex="1">
          <mxGeometry x="100" width="40" height="40" as="geometry" />
        </mxCell>
        <mxCell id="ARjCUjGzddFHNbugClma-34" value="" style="endArrow=classic;html=1;rounded=0;entryX=0.5;entryY=0;entryDx=0;entryDy=0;exitX=0.5;exitY=1;exitDx=0;exitDy=0;strokeColor=#000000;dashed=1;dashPattern=12 12;" parent="ARjCUjGzddFHNbugClma-72" edge="1">
          <mxGeometry width="50" height="50" relative="1" as="geometry">
            <mxPoint x="119" y="40" as="sourcePoint" />
            <mxPoint x="119" y="110" as="targetPoint" />
          </mxGeometry>
        </mxCell>
        <mxCell id="AcIeWgYr6pf9MUw3DJko-31" value="" style="group" parent="KbIthd3pQMy6zMNx4K4I-4" vertex="1" connectable="0">
          <mxGeometry x="15" y="366" width="410" height="190" as="geometry" />
        </mxCell>
        <mxCell id="AcIeWgYr6pf9MUw3DJko-32" value="&lt;font face=&quot;Times New Roman&quot; color=&quot;#000000&quot; style=&quot;font-size: 15px;&quot;&gt;&lt;b&gt;L&lt;sub&gt;1&lt;/sub&gt;&lt;/b&gt;&lt;/font&gt;" style="ellipse;whiteSpace=wrap;html=1;aspect=fixed;fillColor=#f5f5f5;fontColor=#333333;strokeColor=#000000;" parent="AcIeWgYr6pf9MUw3DJko-31" vertex="1">
          <mxGeometry x="371.8604651162791" y="76" width="38" height="38" as="geometry" />
        </mxCell>
        <mxCell id="AcIeWgYr6pf9MUw3DJko-33" value="" style="endArrow=classic;html=1;rounded=0;exitX=0;exitY=0;exitDx=0;exitDy=0;strokeColor=#000000;dashed=1;entryX=1;entryY=1;entryDx=0;entryDy=0;" parent="AcIeWgYr6pf9MUw3DJko-31" source="AcIeWgYr6pf9MUw3DJko-32" target="AcIeWgYr6pf9MUw3DJko-45" edge="1">
          <mxGeometry width="50" height="50" relative="1" as="geometry">
            <mxPoint x="686.5116279069767" y="204.25" as="sourcePoint" />
            <mxPoint x="276.51162790697674" y="19" as="targetPoint" />
          </mxGeometry>
        </mxCell>
        <mxCell id="AcIeWgYr6pf9MUw3DJko-34" value="" style="endArrow=classic;html=1;rounded=0;exitX=0;exitY=1;exitDx=0;exitDy=0;strokeColor=#000000;dashed=1;entryX=1;entryY=0;entryDx=0;entryDy=0;" parent="AcIeWgYr6pf9MUw3DJko-31" source="AcIeWgYr6pf9MUw3DJko-32" target="AcIeWgYr6pf9MUw3DJko-46" edge="1">
          <mxGeometry width="50" height="50" relative="1" as="geometry">
            <mxPoint x="362.3255813953488" y="61.75" as="sourcePoint" />
            <mxPoint x="448.13953488372096" y="71.25" as="targetPoint" />
          </mxGeometry>
        </mxCell>
        <mxCell id="AcIeWgYr6pf9MUw3DJko-35" value="&lt;font face=&quot;Times New Roman&quot; style=&quot;font-size: 15px;&quot;&gt;&lt;b&gt;X&lt;sub&gt;1&lt;/sub&gt;&lt;/b&gt;&lt;/font&gt;" style="ellipse;whiteSpace=wrap;html=1;aspect=fixed;" parent="AcIeWgYr6pf9MUw3DJko-31" vertex="1">
          <mxGeometry width="38" height="38" as="geometry" />
        </mxCell>
        <mxCell id="AcIeWgYr6pf9MUw3DJko-36" value="&lt;font face=&quot;Times New Roman&quot; style=&quot;font-size: 15px;&quot;&gt;&lt;b&gt;X&lt;sub&gt;2&lt;/sub&gt;&lt;/b&gt;&lt;/font&gt;" style="ellipse;whiteSpace=wrap;html=1;aspect=fixed;" parent="AcIeWgYr6pf9MUw3DJko-31" vertex="1">
          <mxGeometry x="76.27906976744187" width="38" height="38" as="geometry" />
        </mxCell>
        <mxCell id="AcIeWgYr6pf9MUw3DJko-37" style="edgeStyle=orthogonalEdgeStyle;rounded=0;orthogonalLoop=1;jettySize=auto;html=1;exitX=1;exitY=0.5;exitDx=0;exitDy=0;entryX=0;entryY=0.5;entryDx=0;entryDy=0;" parent="AcIeWgYr6pf9MUw3DJko-31" source="AcIeWgYr6pf9MUw3DJko-35" target="AcIeWgYr6pf9MUw3DJko-36" edge="1">
          <mxGeometry relative="1" as="geometry" />
        </mxCell>
        <mxCell id="VlsjXs8myiMY3NLYp2yQ-2" style="edgeStyle=orthogonalEdgeStyle;rounded=0;orthogonalLoop=1;jettySize=auto;html=1;exitX=1;exitY=0.5;exitDx=0;exitDy=0;entryX=0;entryY=0.5;entryDx=0;entryDy=0;" parent="AcIeWgYr6pf9MUw3DJko-31" source="AcIeWgYr6pf9MUw3DJko-38" target="AcIeWgYr6pf9MUw3DJko-40" edge="1">
          <mxGeometry relative="1" as="geometry" />
        </mxCell>
        <mxCell id="AcIeWgYr6pf9MUw3DJko-38" value="&lt;font face=&quot;Times New Roman&quot; style=&quot;font-size: 15px;&quot;&gt;&lt;b&gt;X&lt;sub&gt;3&lt;/sub&gt;&lt;/b&gt;&lt;/font&gt;" style="ellipse;whiteSpace=wrap;html=1;aspect=fixed;" parent="AcIeWgYr6pf9MUw3DJko-31" vertex="1">
          <mxGeometry x="38.139534883720934" y="76" width="38" height="38" as="geometry" />
        </mxCell>
        <mxCell id="AcIeWgYr6pf9MUw3DJko-39" value="&lt;font face=&quot;Times New Roman&quot; style=&quot;font-size: 15px;&quot;&gt;&lt;b&gt;X&lt;sub&gt;4&lt;/sub&gt;&lt;/b&gt;&lt;/font&gt;" style="ellipse;whiteSpace=wrap;html=1;aspect=fixed;" parent="AcIeWgYr6pf9MUw3DJko-31" vertex="1">
          <mxGeometry x="114.4186046511628" y="152" width="38" height="38" as="geometry" />
        </mxCell>
        <mxCell id="AcIeWgYr6pf9MUw3DJko-40" value="&lt;font face=&quot;Times New Roman&quot; style=&quot;font-size: 15px;&quot;&gt;&lt;b&gt;X&lt;sub&gt;5&lt;/sub&gt;&lt;/b&gt;&lt;/font&gt;" style="ellipse;whiteSpace=wrap;html=1;aspect=fixed;" parent="AcIeWgYr6pf9MUw3DJko-31" vertex="1">
          <mxGeometry x="152.55813953488374" y="76" width="38" height="38" as="geometry" />
        </mxCell>
        <mxCell id="AcIeWgYr6pf9MUw3DJko-41" value="&lt;font face=&quot;Times New Roman&quot; style=&quot;font-size: 15px;&quot;&gt;&lt;b&gt;X&lt;sub&gt;6&lt;/sub&gt;&lt;/b&gt;&lt;/font&gt;" style="ellipse;whiteSpace=wrap;html=1;aspect=fixed;" parent="AcIeWgYr6pf9MUw3DJko-31" vertex="1">
          <mxGeometry x="200.2325581395349" y="152" width="38" height="38" as="geometry" />
        </mxCell>
        <mxCell id="AcIeWgYr6pf9MUw3DJko-43" value="&lt;font face=&quot;Times New Roman&quot; style=&quot;font-size: 15px;&quot;&gt;&lt;b&gt;X&lt;sub&gt;7&lt;/sub&gt;&lt;/b&gt;&lt;/font&gt;" style="ellipse;whiteSpace=wrap;html=1;aspect=fixed;" parent="AcIeWgYr6pf9MUw3DJko-31" vertex="1">
          <mxGeometry x="257.4418604651163" y="76" width="38" height="38" as="geometry" />
        </mxCell>
        <mxCell id="AcIeWgYr6pf9MUw3DJko-44" value="&lt;font face=&quot;Times New Roman&quot; style=&quot;font-size: 15px;&quot;&gt;&lt;b&gt;X&lt;sub&gt;9&lt;/sub&gt;&lt;/b&gt;&lt;/font&gt;" style="ellipse;whiteSpace=wrap;html=1;aspect=fixed;" parent="AcIeWgYr6pf9MUw3DJko-31" vertex="1">
          <mxGeometry x="228.8372093023256" width="38" height="38" as="geometry" />
        </mxCell>
        <mxCell id="AcIeWgYr6pf9MUw3DJko-45" value="&lt;font face=&quot;Times New Roman&quot; style=&quot;font-size: 15px;&quot;&gt;&lt;b&gt;X&lt;sub&gt;10&lt;/sub&gt;&lt;/b&gt;&lt;/font&gt;" style="ellipse;whiteSpace=wrap;html=1;aspect=fixed;" parent="AcIeWgYr6pf9MUw3DJko-31" vertex="1">
          <mxGeometry x="314.6511627906977" width="38" height="38" as="geometry" />
        </mxCell>
        <mxCell id="AcIeWgYr6pf9MUw3DJko-46" value="&lt;font face=&quot;Times New Roman&quot; style=&quot;font-size: 15px;&quot;&gt;&lt;b&gt;X&lt;sub&gt;8&lt;/sub&gt;&lt;/b&gt;&lt;/font&gt;" style="ellipse;whiteSpace=wrap;html=1;aspect=fixed;" parent="AcIeWgYr6pf9MUw3DJko-31" vertex="1">
          <mxGeometry x="305.1162790697675" y="152" width="38" height="38" as="geometry" />
        </mxCell>
        <mxCell id="AcIeWgYr6pf9MUw3DJko-47" style="edgeStyle=orthogonalEdgeStyle;rounded=0;orthogonalLoop=1;jettySize=auto;html=1;exitX=1;exitY=0.5;exitDx=0;exitDy=0;entryX=0;entryY=0.5;entryDx=0;entryDy=0;startArrow=classic;startFill=1;endArrow=none;endFill=0;" parent="AcIeWgYr6pf9MUw3DJko-31" source="AcIeWgYr6pf9MUw3DJko-39" target="AcIeWgYr6pf9MUw3DJko-41" edge="1">
          <mxGeometry relative="1" as="geometry" />
        </mxCell>
        <mxCell id="AcIeWgYr6pf9MUw3DJko-48" value="" style="endArrow=classic;html=1;rounded=0;exitX=0.5;exitY=1;exitDx=0;exitDy=0;entryX=0;entryY=0;entryDx=0;entryDy=0;" parent="AcIeWgYr6pf9MUw3DJko-31" source="AcIeWgYr6pf9MUw3DJko-35" target="AcIeWgYr6pf9MUw3DJko-38" edge="1">
          <mxGeometry width="50" height="50" relative="1" as="geometry">
            <mxPoint x="247.90697674418607" y="28.5" as="sourcePoint" />
            <mxPoint x="295.5813953488372" y="-19" as="targetPoint" />
          </mxGeometry>
        </mxCell>
        <mxCell id="AcIeWgYr6pf9MUw3DJko-49" value="" style="endArrow=none;html=1;rounded=0;exitX=0.5;exitY=1;exitDx=0;exitDy=0;entryX=1;entryY=0;entryDx=0;entryDy=0;startArrow=classic;startFill=1;endFill=0;" parent="AcIeWgYr6pf9MUw3DJko-31" source="AcIeWgYr6pf9MUw3DJko-36" target="AcIeWgYr6pf9MUw3DJko-38" edge="1">
          <mxGeometry width="50" height="50" relative="1" as="geometry">
            <mxPoint x="247.90697674418607" y="28.5" as="sourcePoint" />
            <mxPoint x="295.5813953488372" y="-19" as="targetPoint" />
          </mxGeometry>
        </mxCell>
        <mxCell id="AcIeWgYr6pf9MUw3DJko-50" value="" style="endArrow=classic;html=1;rounded=0;exitX=0;exitY=1;exitDx=0;exitDy=0;entryX=1;entryY=0;entryDx=0;entryDy=0;" parent="AcIeWgYr6pf9MUw3DJko-31" source="AcIeWgYr6pf9MUw3DJko-43" target="AcIeWgYr6pf9MUw3DJko-41" edge="1">
          <mxGeometry width="50" height="50" relative="1" as="geometry">
            <mxPoint x="209.7674418604651" y="28.5" as="sourcePoint" />
            <mxPoint x="257.4418604651163" y="-19" as="targetPoint" />
          </mxGeometry>
        </mxCell>
        <mxCell id="AcIeWgYr6pf9MUw3DJko-51" value="" style="endArrow=classic;html=1;rounded=0;exitX=1;exitY=1;exitDx=0;exitDy=0;entryX=0.025;entryY=0.325;entryDx=0;entryDy=0;entryPerimeter=0;" parent="AcIeWgYr6pf9MUw3DJko-31" source="AcIeWgYr6pf9MUw3DJko-38" target="AcIeWgYr6pf9MUw3DJko-39" edge="1">
          <mxGeometry width="50" height="50" relative="1" as="geometry">
            <mxPoint x="209.7674418604651" y="28.5" as="sourcePoint" />
            <mxPoint x="257.4418604651163" y="-19" as="targetPoint" />
          </mxGeometry>
        </mxCell>
        <mxCell id="AcIeWgYr6pf9MUw3DJko-52" value="" style="endArrow=classic;html=1;rounded=0;fontFamily=Times New Roman;entryX=1;entryY=0.5;entryDx=0;entryDy=0;exitX=0;exitY=0.5;exitDx=0;exitDy=0;" parent="AcIeWgYr6pf9MUw3DJko-31" source="AcIeWgYr6pf9MUw3DJko-45" target="AcIeWgYr6pf9MUw3DJko-44" edge="1">
          <mxGeometry width="50" height="50" relative="1" as="geometry">
            <mxPoint x="395.69767441860466" y="-19" as="sourcePoint" />
            <mxPoint x="443.37209302325584" y="-66.5" as="targetPoint" />
          </mxGeometry>
        </mxCell>
        <mxCell id="AcIeWgYr6pf9MUw3DJko-53" value="" style="endArrow=classic;html=1;rounded=0;exitX=1;exitY=1;exitDx=0;exitDy=0;entryX=0.5;entryY=0;entryDx=0;entryDy=0;" parent="AcIeWgYr6pf9MUw3DJko-31" source="AcIeWgYr6pf9MUw3DJko-40" target="AcIeWgYr6pf9MUw3DJko-41" edge="1">
          <mxGeometry width="50" height="50" relative="1" as="geometry">
            <mxPoint x="204.046511627907" y="114" as="sourcePoint" />
            <mxPoint x="266.9767441860465" y="167.2" as="targetPoint" />
          </mxGeometry>
        </mxCell>
        <mxCell id="AcIeWgYr6pf9MUw3DJko-54" value="" style="endArrow=classic;html=1;rounded=0;exitX=0.5;exitY=0;exitDx=0;exitDy=0;entryX=0;entryY=1;entryDx=0;entryDy=0;" parent="AcIeWgYr6pf9MUw3DJko-31" source="AcIeWgYr6pf9MUw3DJko-39" target="AcIeWgYr6pf9MUw3DJko-40" edge="1">
          <mxGeometry width="50" height="50" relative="1" as="geometry">
            <mxPoint x="89.62790697674419" y="136.79999999999998" as="sourcePoint" />
            <mxPoint x="152.55813953488374" y="190" as="targetPoint" />
          </mxGeometry>
        </mxCell>
        <mxCell id="AcIeWgYr6pf9MUw3DJko-55" value="" style="endArrow=classic;html=1;rounded=0;entryX=0;entryY=0;entryDx=0;entryDy=0;exitX=1;exitY=1;exitDx=0;exitDy=0;" parent="AcIeWgYr6pf9MUw3DJko-31" source="AcIeWgYr6pf9MUw3DJko-43" target="AcIeWgYr6pf9MUw3DJko-46" edge="1">
          <mxGeometry width="50" height="50" relative="1" as="geometry">
            <mxPoint x="295.5813953488372" y="114" as="sourcePoint" />
            <mxPoint x="247.90697674418607" y="161.5" as="targetPoint" />
          </mxGeometry>
        </mxCell>
        <mxCell id="AcIeWgYr6pf9MUw3DJko-56" value="" style="endArrow=classic;html=1;rounded=0;exitX=0.5;exitY=1;exitDx=0;exitDy=0;entryX=0;entryY=0;entryDx=0;entryDy=0;" parent="AcIeWgYr6pf9MUw3DJko-31" source="AcIeWgYr6pf9MUw3DJko-44" target="AcIeWgYr6pf9MUw3DJko-43" edge="1">
          <mxGeometry width="50" height="50" relative="1" as="geometry">
            <mxPoint x="282.2325581395349" y="127.3" as="sourcePoint" />
            <mxPoint x="257.4418604651163" y="171" as="targetPoint" />
          </mxGeometry>
        </mxCell>
        <mxCell id="AcIeWgYr6pf9MUw3DJko-57" value="" style="endArrow=classic;html=1;rounded=0;exitX=0;exitY=0.5;exitDx=0;exitDy=0;strokeColor=#000000;dashed=1;entryX=1;entryY=0.5;entryDx=0;entryDy=0;" parent="AcIeWgYr6pf9MUw3DJko-31" source="AcIeWgYr6pf9MUw3DJko-32" target="AcIeWgYr6pf9MUw3DJko-43" edge="1">
          <mxGeometry width="50" height="50" relative="1" as="geometry">
            <mxPoint x="390.93023255813955" y="124.44999999999999" as="sourcePoint" />
            <mxPoint x="352.7906976744186" y="180.5" as="targetPoint" />
          </mxGeometry>
        </mxCell>
        <mxCell id="AcIeWgYr6pf9MUw3DJko-58" value="&lt;font face=&quot;Times New Roman&quot; color=&quot;#000000&quot; style=&quot;font-size: 15px;&quot;&gt;&lt;b&gt;L&lt;sub&gt;2&lt;/sub&gt;&lt;/b&gt;&lt;/font&gt;" style="ellipse;whiteSpace=wrap;html=1;aspect=fixed;fillColor=#f5f5f5;fontColor=#333333;strokeColor=#000000;" parent="AcIeWgYr6pf9MUw3DJko-31" vertex="1">
          <mxGeometry x="162.09302325581396" width="38" height="38" as="geometry" />
        </mxCell>
        <mxCell id="AcIeWgYr6pf9MUw3DJko-59" value="" style="endArrow=classic;html=1;rounded=0;exitX=0.5;exitY=1;exitDx=0;exitDy=0;strokeColor=#000000;dashed=1;entryX=0.5;entryY=0;entryDx=0;entryDy=0;" parent="AcIeWgYr6pf9MUw3DJko-31" source="AcIeWgYr6pf9MUw3DJko-58" target="AcIeWgYr6pf9MUw3DJko-40" edge="1">
          <mxGeometry width="50" height="50" relative="1" as="geometry">
            <mxPoint x="387.1162790697675" y="117.8" as="sourcePoint" />
            <mxPoint x="190.69767441860466" y="76" as="targetPoint" />
          </mxGeometry>
        </mxCell>
        <mxCell id="AcIeWgYr6pf9MUw3DJko-60" value="" style="endArrow=classic;html=1;rounded=0;exitX=0;exitY=0.5;exitDx=0;exitDy=0;strokeColor=#000000;dashed=1;entryX=1;entryY=0.5;entryDx=0;entryDy=0;" parent="AcIeWgYr6pf9MUw3DJko-31" source="AcIeWgYr6pf9MUw3DJko-58" target="AcIeWgYr6pf9MUw3DJko-36" edge="1">
          <mxGeometry width="50" height="50" relative="1" as="geometry">
            <mxPoint x="396.6511627906977" y="127.3" as="sourcePoint" />
            <mxPoint x="356.60465116279073" y="176.7" as="targetPoint" />
          </mxGeometry>
        </mxCell>
        <mxCell id="VlsjXs8myiMY3NLYp2yQ-1" value="" style="endArrow=classic;html=1;rounded=0;entryX=1;entryY=0;entryDx=0;entryDy=0;exitX=0;exitY=1;exitDx=0;exitDy=0;" parent="AcIeWgYr6pf9MUw3DJko-31" source="AcIeWgYr6pf9MUw3DJko-45" target="AcIeWgYr6pf9MUw3DJko-43" edge="1">
          <mxGeometry width="50" height="50" relative="1" as="geometry">
            <mxPoint x="55" y="-86" as="sourcePoint" />
            <mxPoint x="105" y="-136" as="targetPoint" />
          </mxGeometry>
        </mxCell>
      </root>
    </mxGraphModel>
  </diagram>
</mxfile>
